<?xml version="1.0" encoding="utf-8"?>
<svg viewBox="0 0 256 256" xmlns="http://www.w3.org/2000/svg">
  <defs/>
  <rect width="256" height="256" fill="none"/>
  <path d="M 23.917 56.343 C 25.516 56.199 27.216 56.578 28.609 57.125 C 29.938 57.646 31.33 58.682 32.128 59.471 C 32.739 60.075 32.604 61.004 33.301 61.296 C 34.233 61.685 36.181 60.571 37.733 60.774 C 39.464 61.001 41.331 62.514 43.208 62.86 C 45.068 63.203 46.571 62.644 48.943 62.86 C 52.174 63.154 56.749 63.901 61.195 64.945 C 66.282 66.14 74.156 69.557 77.879 69.898 C 80.094 70.102 80.565 68.951 82.571 69.116 C 85.471 69.355 89.021 71.539 94.041 72.505 C 101.18 73.879 116.331 75.422 122.717 75.633 C 126.559 75.761 128.919 75.014 130.798 75.112 C 132.001 75.175 132.013 75.706 133.405 75.633 C 136.185 75.488 143.06 72.897 148.003 72.244 C 152.965 71.59 157.754 72.411 163.123 71.723 C 169.064 70.962 177.138 68.276 182.153 67.552 C 185.816 67.023 187.783 67.671 191.016 67.031 C 194.805 66.281 199.743 63.665 203.529 62.86 C 206.764 62.172 209.515 62.838 212.393 62.078 C 215.341 61.299 218.349 58.821 220.995 58.167 C 223.24 57.613 225.259 57.718 227.252 57.907 C 229.162 58.088 231.171 58.542 232.726 59.21 C 234.114 59.806 235.125 60.305 236.246 61.556 C 237.728 63.212 239.196 66.013 240.416 68.986 C 240.549 69.309 240.68 69.649 240.81 70.004 C 240.481 70.719 240.354 71.334 240.156 72.896 C 239.605 77.234 240.192 89.873 239.634 97.14 C 239.146 103.498 237.85 108.331 237.288 114.345 C 236.693 120.722 236.19 126.948 236.246 134.418 C 236.31 143.098 237.786 154.795 238.07 163.615 C 238.32 171.356 238.464 180.322 238.07 184.731 C 237.848 187.22 237.168 187.928 237.028 189.684 C 236.891 191.383 236.829 193.437 237.167 195.148 C 236.144 195.398 235.125 195.545 234.29 195.549 C 232.634 195.556 231.825 195.199 229.859 194.246 C 226.574 192.653 217.711 186.913 215.912 185.122 C 215.182 184.394 215.389 183.883 215.13 183.557 C 214.955 183.338 214.887 183.474 214.609 183.166 C 213.855 182.334 211.378 178.171 210.047 176.78 C 209.131 175.823 208.016 175.378 207.57 174.955 C 207.33 174.727 207.394 174.644 207.179 174.433 C 206.833 174.094 206.117 173.815 205.485 173.13 C 204.547 172.115 202.771 169.117 202.226 168.438 C 202.012 168.171 202.037 168.275 201.835 168.047 C 201.411 167.567 200.043 165.789 199.619 165.309 C 199.417 165.081 199.431 165.172 199.228 164.918 C 198.755 164.327 197.154 161.729 196.621 161.138 C 196.377 160.868 196.462 160.988 196.1 160.747 C 195.056 160.054 189.553 157.043 188.279 155.925 C 187.647 155.37 188.083 155.267 187.367 154.621 C 185.571 153 176.241 147.799 174.202 145.758 C 173.201 144.755 173.251 143.841 172.899 143.412 C 172.699 143.168 172.607 143.268 172.377 143.021 C 171.934 142.544 171.421 141.173 170.422 140.284 C 169.11 139.114 166.985 137.361 164.687 136.895 C 162.031 136.356 157.36 136.507 155.172 137.937 C 153.198 139.228 152.894 142.905 151.653 144.455 C 150.694 145.652 149.628 145.653 148.655 146.931 C 147.302 148.707 146.133 153.278 144.745 154.882 C 143.786 155.989 142.927 156.276 141.747 156.707 C 140.414 157.194 138.584 157.58 137.054 157.489 C 135.543 157.398 134.08 156.946 132.623 156.185 C 130.991 155.334 128.491 153.001 127.8 152.405 C 127.536 152.178 127.755 152.288 127.409 152.014 C 126.027 150.92 114.85 143.608 112.941 141.848 C 112.213 141.176 112.554 141.094 112.029 140.544 C 111.14 139.614 108.134 137.359 107.467 136.764 C 107.208 136.534 107.242 136.562 107.076 136.373 C 106.816 136.08 106.498 135.502 106.033 135.07 C 105.468 134.545 104.301 134.001 103.817 133.506 C 103.464 133.144 103.408 132.707 103.165 132.463 C 102.965 132.262 102.703 132.255 102.514 132.072 C 102.307 131.873 102.214 131.486 101.992 131.29 C 101.777 131.099 101.51 131.151 101.21 130.899 C 100.741 130.503 99.953 129.21 99.516 128.813 C 99.252 128.574 99.105 128.637 98.864 128.422 C 98.52 128.116 97.971 127.302 97.691 126.989 C 97.518 126.796 97.511 126.842 97.3 126.598 C 96.814 126.033 95.048 123.643 94.563 123.078 C 94.352 122.833 94.322 122.874 94.172 122.687 C 93.953 122.416 93.636 121.782 93.39 121.514 C 93.208 121.317 93.074 121.351 92.868 121.123 C 92.524 120.743 91.909 119.548 91.565 119.168 C 91.359 118.94 91.225 118.974 91.043 118.777 C 90.797 118.509 90.796 118.143 90.261 117.604 C 89.161 116.494 85.038 113.842 83.484 112.39 C 82.406 111.384 81.846 110.329 81.268 109.783 C 80.898 109.434 80.585 109.324 80.355 109.132 C 80.182 108.987 80.21 108.911 79.964 108.741 C 79.457 108.389 78.056 106.713 76.966 107.176 C 75.135 107.956 71.929 116.46 70.71 117.865 C 70.226 118.422 69.917 118.321 69.667 118.516 C 69.485 118.658 69.514 118.693 69.276 118.907 C 68.739 119.391 67.135 120.475 66.018 121.644 C 64.672 123.053 62.682 126.238 61.847 126.989 C 61.478 127.319 61.353 127.144 61.065 127.38 C 60.646 127.722 60.258 128.493 59.631 129.074 C 58.858 129.789 57.141 130.864 56.633 131.29 C 56.396 131.488 56.422 131.474 56.242 131.681 C 55.922 132.048 55.652 132.75 54.808 133.506 C 53.327 134.832 47.928 138.11 46.987 138.85 C 46.685 139.087 46.834 139.027 46.596 139.241 C 46.059 139.725 44.048 141.257 43.338 141.978 C 42.872 142.451 42.718 142.885 42.425 143.151 C 42.202 143.355 41.954 143.402 41.774 143.542 C 41.615 143.665 41.579 143.692 41.383 143.933 C 40.956 144.456 39.874 146.32 39.167 147.061 C 38.627 147.628 37.934 147.953 37.603 148.234 C 37.403 148.405 37.432 148.445 37.212 148.625 C 36.795 148.967 35.669 149.462 34.996 150.19 C 34.211 151.038 33.623 152.895 32.91 153.579 C 32.398 154.07 31.672 154.102 31.346 154.361 C 31.127 154.535 31.214 154.651 30.955 154.882 C 30.434 155.347 29.051 156.49 27.827 156.967 C 26.482 157.491 24.856 157.999 23.135 157.749 C 21.06 157.448 17.857 156.302 16.227 154.621 C 15.807 154.188 15.445 153.684 15.131 153.131 C 14.701 150.401 14.401 147.745 14.402 145.367 C 14.403 140.476 15.332 135.681 16.225 130.954 C 17.633 127.589 19.109 124.164 19.615 121.644 C 20.328 118.102 20.317 116.569 19.876 112.781 C 19.558 110.042 18.454 106.06 17.329 102.047 C 17.274 100.392 17.245 98.679 17.269 96.879 C 17.401 86.817 18.649 69.958 18.833 62.99 C 18.894 60.691 19.049 59.224 19.062 57.938 C 20.466 57.09 22.356 56.483 23.917 56.343 Z" style="stroke: rgb(129, 151, 57); stroke-width: 0px; fill: rgb(137, 184, 194);" stroke="rgb(255,0,0)"/>
  <path stroke="rgb(255,0,0)" stroke-width="0" d="M 76.409 105.33 C 77.32 105.21 78.578 105.201 79.537 105.59 C 80.541 105.998 81.622 106.89 82.274 107.806 C 82.922 108.717 82.577 109.974 83.447 111.065 C 84.654 112.577 88.557 114.124 89.834 115.627 C 90.765 116.722 90.625 117.998 91.268 118.885 C 91.864 119.709 92.826 120.136 93.484 120.841 C 94.126 121.529 94.347 122.371 95.178 123.056 C 96.229 123.923 98.053 124.261 99.61 125.403 C 101.531 126.811 104.44 129.796 105.736 131.268 C 106.557 132.201 106.714 132.864 107.3 133.484 C 107.851 134.066 108.665 134.158 109.125 134.918 C 109.727 135.912 110.153 138.694 110.167 139.349 C 110.173 139.6 109.904 139.508 110.037 139.74 C 110.307 140.212 112.247 141.916 114.342 143.548 C 115.429 144.274 116.47 145.033 117.369 145.749 C 118.075 146.216 118.699 146.582 119.161 146.779 C 120.571 147.38 121.535 146.634 122.55 147.039 C 123.58 147.451 124.588 148.225 125.287 149.255 C 126.088 150.436 126.801 152.812 126.851 153.948 C 126.856 154.06 126.842 154.167 126.817 154.271 C 127.281 154.315 127.615 154.18 128.358 154.151 C 129.048 154.124 130.234 154.018 131.482 153.907 C 133.306 151.536 135.442 147.977 137.409 145.997 C 140.07 143.317 142.504 141.483 145.751 139.219 C 149.481 136.618 155.356 132.758 158.785 131.398 C 161.122 130.471 162.728 129.999 164.52 130.356 C 166.338 130.717 168.801 132.762 169.604 133.614 C 170.036 134.073 169.639 134.218 170.125 134.787 C 171.289 136.152 177.184 139.883 178.989 141.956 C 180.212 143.362 179.831 144.391 181.074 145.736 C 182.876 147.686 188.962 150.953 189.937 152.123 C 190.304 152.563 189.847 152.588 190.198 153.035 C 191.11 154.197 196.31 157.089 198.279 159.422 C 198.371 159.531 198.458 159.642 198.539 159.753 C 200.047 160.521 201.306 161.198 202.132 161.711 C 204.5 163.181 205.19 163.74 206.433 165.23 C 207.712 166.761 209.011 168.796 209.704 170.856 C 212.041 172.048 214.145 173.144 214.963 174.02 C 215.884 175.006 215.178 175.826 215.876 176.497 C 216.779 177.365 218.805 177.146 220.568 178.322 C 223.077 179.996 227.759 184.791 229.301 186.794 C 230.172 187.925 230.334 188.341 230.604 189.401 C 230.932 190.685 231.232 192.64 230.865 194.093 C 230.497 195.552 229.424 197.348 228.389 198.134 C 227.5 198.807 226.806 199.139 225.26 198.916 C 222.389 198.501 214.624 193.348 211.444 192.66 C 209.545 192.248 208.869 192.568 207.273 192.92 C 206.904 193.001 206.5 193.143 206.074 193.319 C 205.663 193.185 205.232 193.067 204.789 192.967 C 203.288 192.629 200.684 192.509 198.341 192.51 C 195.689 190.947 192.422 189.358 189.854 188.535 C 185.391 187.107 177.288 186.842 175.777 186.971 C 175.404 187.004 175.44 187.05 175.315 187.177 C 171.819 186.406 167.846 185.755 166.729 185.744 C 166.179 185.739 166.227 185.786 165.947 186.005 C 165.847 186.084 165.723 186.194 165.59 186.326 C 163.474 186.052 160.136 185.212 157.003 184.442 C 155.396 184.77 153.982 185.183 152.862 185.172 C 151.457 185.159 151.561 184.725 149.734 184.651 C 145.594 184.484 130.496 186.035 125.23 185.694 C 123.086 185.555 122.313 185.126 121.05 184.774 C 120.855 184.79 120.66 184.812 120.465 184.839 C 118.239 185.152 117.367 186.15 114.208 186.664 C 108.658 187.565 95.768 187.492 87.618 188.489 C 80.258 189.388 73.097 191.416 67.285 192.138 C 62.564 192.725 58.823 192.497 55.032 192.92 C 51.573 193.306 49.065 193.625 45.387 194.484 C 40.871 195.539 33.567 198.476 29.746 199.177 C 27.231 199.638 25.835 199.874 24.011 199.437 C 22.138 198.989 19.703 197.698 18.667 196.439 C 17.811 195.4 17.868 195.011 17.624 192.79 C 17.405 190.794 17.228 186.355 17.14 181.334 C 17.055 181.087 16.979 180.845 16.915 180.61 C 16.382 178.672 16.371 176.791 16.654 174.875 C 16.746 174.249 16.895 173.586 17.084 172.922 C 17.109 167.377 17.269 162.342 17.624 160.204 C 17.99 158.001 18.513 157.386 19.188 156.685 C 19.706 156.147 20.549 156.275 21.013 155.903 C 21.438 155.562 21.583 154.853 21.925 154.599 C 22.204 154.393 22.616 154.487 22.838 154.339 C 23.029 154.211 22.976 154.056 23.229 153.817 C 23.736 153.339 25.542 152.375 26.227 151.601 C 26.782 150.973 26.819 150.175 27.269 149.646 C 27.698 149.144 28.272 149.042 28.833 148.473 C 29.587 147.709 30.377 145.985 31.31 145.215 C 32.138 144.532 33.489 144.384 34.047 143.911 C 34.436 143.582 34.412 143.184 34.699 142.868 C 35.009 142.528 35.58 142.265 35.872 141.956 C 36.115 141.699 36.094 141.666 36.393 141.174 C 37.138 139.952 39.914 134.511 40.955 133.223 C 41.458 132.601 41.723 132.67 42.128 132.311 C 42.588 131.904 42.919 131.47 43.562 130.877 C 44.484 130.027 46.751 128.159 47.342 127.618 C 47.587 127.394 47.376 127.505 47.733 127.227 C 49.236 126.058 61.579 118.172 64.287 115.887 C 65.545 114.826 65.406 114.406 66.242 113.672 C 67.239 112.796 68.77 112.195 70.022 111.065 C 71.466 109.761 73.109 107.005 74.323 106.112 C 75.111 105.532 75.614 105.434 76.409 105.33 Z" style="stroke: rgb(129, 151, 57); stroke-width: 2px; paint-order: fill; fill-rule: nonzero; stroke-opacity: 0; fill: lch(75.2 31.1 110);"/>
  <path d="M16,64a8,8,0,0,1,10.05-7.74C43.35,60.89,81.44,72,128,72S212.65,60.89,230,56.27A8,8,0,0,1,240,64V192a8,8,0,0,1-10.06,7.73C212.63,195.08,174.55,184,128,184S43.37,195.08,26.06,199.72A8,8,0,0,1,16,192Z" fill="none" stroke-linecap="round" stroke-linejoin="round" stroke-width="8" style="stroke: rgb(31, 34, 51);"/>
  <circle cx="200.35" cy="99.398" r="12" style="fill: rgb(31, 34, 51);"/>
  <path d="M16,160.69l54.34-54.35a8,8,0,0,1,11.32,0l79.46,79.46" fill="none" stroke-linecap="round" stroke-linejoin="round" stroke-width="8" style="stroke: rgb(31, 34, 51);"/>
  <path d="M131.31,156,157,130.34a8,8,0,0,1,11.31,0l68.25,68.25" fill="none" stroke-linecap="round" stroke-linejoin="round" stroke-width="8" style="stroke: rgb(31, 34, 51);"/>
</svg>